<mxfile host="app.diagrams.net">
  <diagram name="Naming-Confusion" id="naming-confusion">
    <mxGraphModel dx="1000" dy="600" grid="1" gridSize="10" guides="1" tooltips="1" connect="1" arrows="1" fold="1" page="1" pageScale="1" pageWidth="827" pageHeight="1169" math="0" shadow="0">
      <root>
        <mxCell id="0" />
        <mxCell id="1" parent="0" />
        
        <!-- Title -->
        <mxCell id="title" value="Geometric Naming Confusion in Roblox Mapper" style="text;html=1;strokeColor=none;fillColor=none;align=center;verticalAlign=middle;whiteSpace=wrap;rounded=0;fontSize=20;fontStyle=1" parent="1" vertex="1">
          <mxGeometry x="200" y="20" width="400" height="40" as="geometry" />
        </mxCell>
        
        <!-- Current State -->
        <mxCell id="current-label" value="CURRENT (CONFUSING)" style="text;html=1;strokeColor=none;fillColor=#ffcccc;align=center;verticalAlign=middle;whiteSpace=wrap;rounded=0;fontSize=14;fontStyle=1" parent="1" vertex="1">
          <mxGeometry x="80" y="80" width="200" height="30" as="geometry" />
        </mxCell>
        
        <!-- X-axis swimlanes visualization -->
        <mxCell id="x-axis-swim" value="X-axis swimlanes" style="rounded=0;whiteSpace=wrap;html=1;fillColor=#dae8fc;strokeColor=#6c8ebf;" parent="1" vertex="1">
          <mxGeometry x="80" y="130" width="200" height="40" as="geometry" />
        </mxCell>
        
        <mxCell id="x-swim-detail" value="Groups by: X property (type)&#xa;Extends along: Z-axis ⚠️" style="text;html=1;strokeColor=none;fillColor=#ffe6cc;align=left;verticalAlign=middle;whiteSpace=wrap;rounded=0;fontSize=12;" parent="1" vertex="1">
          <mxGeometry x="80" y="180" width="200" height="40" as="geometry" />
        </mxCell>
        
        <!-- Z-axis visualization -->
        <mxCell id="z-arrow" value="← Z-axis →" style="text;html=1;strokeColor=none;fillColor=none;align=center;verticalAlign=middle;whiteSpace=wrap;rounded=0;fontSize=12;fontStyle=1" parent="1" vertex="1">
          <mxGeometry x="120" y="230" width="120" height="20" as="geometry" />
        </mxCell>
        
        <!-- Swimlane blocks -->
        <mxCell id="swim1" value="man" style="rounded=0;whiteSpace=wrap;html=1;fillColor=#fff2cc;strokeColor=#d6b656;" parent="1" vertex="1">
          <mxGeometry x="40" y="260" width="60" height="100" as="geometry" />
        </mxCell>
        
        <mxCell id="swim2" value="woman" style="rounded=0;whiteSpace=wrap;html=1;fillColor=#f8cecc;strokeColor=#b85450;" parent="1" vertex="1">
          <mxGeometry x="110" y="260" width="60" height="100" as="geometry" />
        </mxCell>
        
        <mxCell id="swim3" value="child" style="rounded=0;whiteSpace=wrap;html=1;fillColor=#d5e8d4;strokeColor=#82b366;" parent="1" vertex="1">
          <mxGeometry x="180" y="260" width="60" height="100" as="geometry" />
        </mxCell>
        
        <mxCell id="swim4" value="grandparent" style="rounded=0;whiteSpace=wrap;html=1;fillColor=#e1d5e7;strokeColor=#9673a6;" parent="1" vertex="1">
          <mxGeometry x="250" y="260" width="70" height="100" as="geometry" />
        </mxCell>
        
        <!-- Proposed State -->
        <mxCell id="proposed-label" value="PROPOSED (CLEAR)" style="text;html=1;strokeColor=none;fillColor=#ccffcc;align=center;verticalAlign=middle;whiteSpace=wrap;rounded=0;fontSize=14;fontStyle=1" parent="1" vertex="1">
          <mxGeometry x="480" y="80" width="200" height="30" as="geometry" />
        </mxCell>
        
        <!-- Z-parallel swimlanes -->
        <mxCell id="z-parallel-swim" value="Z-parallel swimlanes" style="rounded=0;whiteSpace=wrap;html=1;fillColor=#d5e8d4;strokeColor=#82b366;" parent="1" vertex="1">
          <mxGeometry x="480" y="130" width="200" height="40" as="geometry" />
        </mxCell>
        
        <mxCell id="z-parallel-detail" value="Groups by: X property (type)&#xa;Extends along: Z-axis ✓" style="text;html=1;strokeColor=none;fillColor=#e6ffcc;align=left;verticalAlign=middle;whiteSpace=wrap;rounded=0;fontSize=12;" parent="1" vertex="1">
          <mxGeometry x="480" y="180" width="200" height="40" as="geometry" />
        </mxCell>
        
        <!-- Problem arrows -->
        <mxCell id="problem1" value="CONFUSING!&#xa;Name doesn't match&#xa;orientation" style="curved=1;endArrow=classic;html=1;strokeColor=#ff0000;strokeWidth=2;exitX=1;exitY=0.5;exitDx=0;exitDy=0;entryX=0;entryY=0.5;entryDx=0;entryDy=0;" parent="1" source="x-axis-swim" target="z-parallel-swim" edge="1">
          <mxGeometry width="50" height="50" relative="1" as="geometry">
            <mxPoint x="350" y="200" as="sourcePoint" />
            <mxPoint x="400" y="150" as="targetPoint" />
          </mxGeometry>
        </mxCell>
        
        <!-- Constants diagram -->
        <mxCell id="const-label" value="CONSTANT NAMING ISSUES" style="text;html=1;strokeColor=none;fillColor=#ffcccc;align=center;verticalAlign=middle;whiteSpace=wrap;rounded=0;fontSize=14;fontStyle=1" parent="1" vertex="1">
          <mxGeometry x="80" y="420" width="600" height="30" as="geometry" />
        </mxCell>
        
        <mxCell id="const-current" value="X_AXIS_Z_BUFFER" style="rounded=1;whiteSpace=wrap;html=1;fillColor=#ffe6cc;strokeColor=#d79b00;" parent="1" vertex="1">
          <mxGeometry x="80" y="470" width="200" height="40" as="geometry" />
        </mxCell>
        
        <mxCell id="const-desc" value="Buffer for X-axis swimlanes&#xa;applied in Z dimension&#xa;(What does this even mean?)" style="text;html=1;strokeColor=none;fillColor=#ffcccc;align=center;verticalAlign=middle;whiteSpace=wrap;rounded=0;fontSize=11;" parent="1" vertex="1">
          <mxGeometry x="80" y="520" width="200" height="50" as="geometry" />
        </mxCell>
        
        <mxCell id="const-arrow" value="Should be →" style="endArrow=classic;html=1;strokeColor=#009900;strokeWidth=2;" parent="1" edge="1">
          <mxGeometry width="50" height="50" relative="1" as="geometry">
            <mxPoint x="300" y="490" as="sourcePoint" />
            <mxPoint x="460" y="490" as="targetPoint" />
          </mxGeometry>
        </mxCell>
        
        <mxCell id="const-proposed" value="Z_PARALLEL_DEPTH_BUFFER" style="rounded=1;whiteSpace=wrap;html=1;fillColor=#d5e8d4;strokeColor=#82b366;" parent="1" vertex="1">
          <mxGeometry x="480" y="470" width="200" height="40" as="geometry" />
        </mxCell>
        
        <mxCell id="const-desc2" value="Buffer for Z-parallel swimlanes&#xa;adds extra depth&#xa;(Clear and unambiguous!)" style="text;html=1;strokeColor=none;fillColor=#ccffcc;align=center;verticalAlign=middle;whiteSpace=wrap;rounded=0;fontSize=11;" parent="1" vertex="1">
          <mxGeometry x="480" y="520" width="200" height="50" as="geometry" />
        </mxCell>
        
      </root>
    </mxGraphModel>
  </diagram>
</mxfile>